<svg width="40" height="40" viewBox="0 0 40 40" fill="none" xmlns="http://www.w3.org/2000/svg">
    <path d="M22.1005 11.9986C22.1005 10.5942 21.1278 9.59921 19.9999 9.59921C18.8722 9.59933 17.9004 10.5943 17.9003 11.9986V12.4791H22.1005V11.9986ZM22.1005 15.8385V13.4391H17.9003V15.8385C17.9003 16.1036 17.685 16.3189 17.4199 16.3189C17.1549 16.3188 16.9404 16.1035 16.9404 15.8385V13.4391H16.1005C15.1695 13.4391 14.2601 14.1933 14.0527 15.3775L14.0537 15.3785L12.4335 24.9791C12.172 26.5531 13.2218 27.8385 14.4804 27.8385H25.4599C26.7185 27.8385 27.7684 26.5531 27.5068 24.9791L25.8867 15.3785L25.8857 15.3697L25.8837 15.3609C25.7325 14.2017 24.8407 13.4391 23.8398 13.4391H23.0605V15.8385C23.0605 16.1036 22.8451 16.3189 22.58 16.3189C22.315 16.3189 22.1005 16.1035 22.1005 15.8385ZM23.0605 12.4791H23.8398C25.3533 12.4791 26.6162 13.6277 26.832 15.2193H26.8339L28.4531 24.8189L28.4541 24.8199L28.4804 25.0094C28.7063 26.9653 27.379 28.7984 25.4599 28.7984H14.4804C12.4995 28.7984 11.1488 26.8452 11.4863 24.8199L11.4873 24.8189L13.1064 15.2193L13.1074 15.2164L13.1699 14.9264C13.5382 13.5017 14.7242 12.4791 16.1005 12.4791H16.9404V11.9986C16.9404 10.1632 18.248 8.63839 19.9999 8.63828C21.752 8.63828 23.0604 10.1632 23.0605 11.9986V12.4791Z" fill="#000000"/>
    </svg>
    